# xmcd
# 
# Track frame offsets:
#     150
#     12407
#     30460
#     45220
#     59590
#     71877
#     88787
#     108022
#     125062
#     138127
#     155260
#     170022
#     186677
#     203115
#     216272
#     226725
#     241252
# 
# Disc length: 3374
# 
# Revision: 1
# Processed by: cddbd v1.5.2PL0 Copyright (c) Steve Scherf et al.
# Submitted via: fre:ac v1.0.17
# 
DISCID=ec0d2c11
DTITLE=Crystal Gayle - Blue
DYEAR=1999
DGENRE=Country
TTITLE0=Don't It Make Your Brown Eyes Blue
TTITLE1=Take It Easy
TTITLE2=I Don't Wanna Lose Your Love
TTITLE3=God Bless The Child
TTITLE4=Baby What About You
TTITLE5=Lover Man (Oh Where Can You Be)
TTITLE6=Cry
TTITLE7=Love Found Me
TTITLE8=Talking In Your Sleep
TTITLE9=The Other Side Of Me
TTITLE10=The Blue Side
TTITLE11=Dancing The Night Away
TTITLE12=When I Dream
TTITLE13=Turning Away From Love
TTITLE14=Crying In The Rain
TTITLE15=He Is Beautiful To Me
TTITLE16=Take Me Home
EXTD=
EXTT0=
EXTT1=
EXTT2=
EXTT3=
EXTT4=
EXTT5=
EXTT6=
EXTT7=
EXTT8=
EXTT9=
EXTT10=
EXTT11=
EXTT12=
EXTT13=
EXTT14=
EXTT15=
EXTT16=
PLAYORDER=
